EMG
version=1
nRows=24
nColumns=17
inDegrees=no
endheader
time	EMG01_right_gast_med	EMG02_right_glut_max	EMG03_left_gast_med	EMG04_left_glut_max	EMG05_right_glut_med	EMG06_right_bic_fem	EMG07_right_rect_fem	EMG08_right_vast_lat	EMG09_right_vast_med	EMG10_right_tens_fasc_lat	EMG11_left_glut_med	EMG12_left_bic_fem	EMG13_left_rect_fem	EMG14_left_vast_lat	EMG15_left_vast_med	EMG16_left_tens_fasc_lat
      0.53000000	     65.75800323	     16.66861343	     -7.72250366	    106.29694366	    -42.47090530	     -9.89240551	     -0.42585278	    -17.96882439	     25.73934746	     23.54787445	     -3.41508007	    -28.40973091	    -16.77021790	      7.63582420	     16.74342537	   -162.51791382
      0.54000000	    -57.84297562	     30.96959496	     -6.00018024	    157.15296936	     70.11648560	    -10.78433800	     -4.05443811	    -20.77369881	     27.94835472	     49.39607239	    -16.34939575	    -22.09870911	     -4.48511887	    -22.40700531	     16.38861084	   -103.22743988
      0.55000000	    238.60166931	     35.51654053	     -7.32845783	    150.09355164	     94.04328156	     43.38061905	     -8.38641834	    -20.80794334	     15.94082546	      2.67240906	     27.57519531	     59.24501419	      6.92275906	    -68.11722565	     15.46363258	    -29.63424873
      0.56000000	   -106.17711639	     37.05141449	     -2.83413196	     80.72270966	    115.67398071	    -37.86252975	     -3.84680271	    -18.04295158	     -3.24786806	    -44.61364746	     15.95506573	    -56.99965668	    -13.25393772	     -5.44163609	     40.47739410	    -12.75557232
      0.57000000	    233.35516357	     32.04116440	     -3.15858412	    -20.56242371	     77.08003235	      3.41573477	      2.46636057	    -18.23734856	    -20.58677864	    -62.53638840	     -1.71269321	    -43.26033020	    -29.31765366	    -38.09001160	     59.01620483	      3.98663235
      0.58000000	     86.71724701	     34.32341766	    -11.15969086	    -95.89203644	     54.62744522	    -13.29434204	     -3.26635981	    -15.98185825	    -22.78393173	    -72.92884064	      2.29590321	     33.90108871	    -43.58589935	    -54.52379608	     70.92501068	     -2.00588322
      0.59000000	   -454.84774780	     36.48189163	    -33.93734741	   -190.30593872	     50.41962814	      5.46464062	      0.45649028	    -16.84630394	    -39.20347977	    -62.58879089	     25.99422455	    -35.56727600	    -59.23776627	     32.22697067	    138.30348206	    -25.51750183
      0.60000000	      9.27246189	     18.27360535	     20.55811310	   -100.70262146	     18.96973228	     -4.54607248	     30.03887939	    -15.85025692	    -74.66814423	    -58.58717346	    -17.20394516	    -49.39679337	     -6.40373993	    -25.47277069	    104.07550812	   -117.51353455
      0.61000000	     61.55902100	      2.76058292	     -0.84941065	    -37.60372925	     -8.74450874	     -1.99114704	     17.91850662	     -7.15960979	    -66.22782135	    -17.38466263	    -57.34090805	     -6.84722900	    -60.75312805	    133.64498901	     88.83721924	    -95.17111969
      0.62000000	     43.65696335	      2.30603695	      1.63140249	     -6.41532707	    -27.48337555	    -11.96392632	    -44.60818863	    -13.95843315	    -36.82880783	    -30.02114868	     -6.35896683	     17.96138763	    -30.93230820	      5.52331734	     57.63580704	     41.09877777
      0.63000000	      2.50468588	      5.91968822	     -8.38565254	     13.43449783	     -1.01593542	    -17.73773193	    -11.15650463	      5.72393417	    -32.43661880	      4.52813148	    -40.99382019	     53.03056335	    -22.72118187	     36.42951965	    -53.49409485	     84.51610565
      0.64000000	      6.81104994	      8.14251041	    -16.45731354	     46.94161224	    -18.92142487	     -8.64178848	      4.95379257	     -4.95323944	    -22.04763412	     21.86216164	     -4.91614532	     34.92342377	     30.74340820	     14.13826656	   -112.07317352	     33.73978806
      0.65000000	      0.36928558	      6.98558617	     18.80488205	     37.89663696	    -45.18115997	    -17.83141708	     -6.80538034	     -8.71293926	    -16.39080238	     36.11161804	     -0.28368855	      0.60736632	     -6.46326828	     10.69965172	    -59.25270081	    -29.25737381
      0.66000000	      5.23681641	      7.01157713	     75.63171387	    158.30369568	    356.19097900	      2.62291431	     13.38726807	     -3.01618123	    -31.26758385	     89.28762817	     63.17372131	     84.12944794	     16.85861206	    -55.83895493	     -1.16812181	    -19.64311981
      0.67000000	    -11.71676350	     12.38535309	    -79.63032532	    217.46122742	    340.72729492	     -0.88385975	      0.23924589	    -11.41517544	    -10.53251076	     37.72713852	     -5.90967369	     -3.73885441	     10.97690487	     48.94036102	     27.33489609	    -25.01048851
      0.68000000	    -11.66179657	      3.38768721	    -63.11609650	     97.43173218	   -132.95191956	     -5.59470224	      5.36427784	      0.68997395	      9.95511055	    101.10774231	     21.60727501	     45.45439911	     60.96686935	    -91.12136841	   -159.53100586	   -177.90170288
      0.69000000	    -14.20513916	      8.25928211	      0.78605700	     26.31011581	   -425.26785278	     -2.27952099	     -5.82064056	     -2.13039041	      4.54166412	     88.37565613	     -5.91481256	     21.46837044	     43.95547867	     -7.96246815	    -57.80045700	   -202.11157227
      0.70000000	    -18.62151337	      6.14194298	     12.28562927	    -99.12084961	   -329.69061279	     -9.35538101	     -2.50748563	      2.61442208	     25.79021835	      5.31161404	     -6.45253754	      9.30275631	    -10.98464680	    -13.12741852	    206.11590576	   -196.57505798
      0.71000000	    -20.81828880	     13.26245213	     21.75749016	   -181.36235046	     72.22325897	     12.86873913	     12.01525784	     11.40371418	     44.52479553	    -40.65645599	      8.06809807	    -15.06020832	     49.05574417	     30.26620483	     83.11277008	    -93.91770935
      0.72000000	     -6.83714867	     10.52215385	     18.41246033	   -208.22943115	    230.09440613	     23.55153656	      8.18579865	     13.75266457	     57.20511627	    -26.98957062	   -101.72311401	    -17.36279297	    -88.59896088	    -66.65945435	   -192.40133667	   -143.12789917
      0.73000000	     -4.35777950	      8.60258484	     19.95886993	   -131.86471558	    -30.08882332	     32.02988815	    -19.64252472	     21.50492287	     52.38852692	     -5.52163935	     24.55768394	    -19.51531219	    -59.07961655	    -14.49721241	     83.41497040	    -46.29750061
      0.74000000	     -0.83985531	      5.57023954	      1.57695007	    -24.88355446	   -307.45150757	     27.50485420	    -11.81651497	      4.43642330	      8.15632248	     40.37812805	    -18.92153740	     -7.24570560	      1.17957580	     43.47507477	    189.66209412	    428.66976929
      0.75000000	     11.47242069	      1.35304475	     36.35915756	     34.03338242	   -256.55780029	     17.70920372	    -24.03366852	     -4.48328543	     -8.19407654	     21.29440689	     11.09803200	     22.91522217	    -12.14182854	     78.30461884	    206.45852661	    334.10177612
      0.76000000	      1.59917045	      9.59727001	    -31.95543289	    131.84188843	    252.65699768	      2.76177549	     11.49807167	      1.10033953	     94.03646851	    -28.59833527	     30.11071014	     51.77656555	     21.91688728	     34.90028000	    109.66581726	   -138.64611816
